<svg xmlns="http://www.w3.org/2000/svg" width="1120" height="780" viewBox="0 0 1120 780">
  <defs>
    <!-- Background grid -->
    <pattern id="grid" width="20" height="20" patternUnits="userSpaceOnUse">
      <path d="M 20 0 L 0 0 0 20" fill="none" stroke="#f1f5f9" stroke-width="1" />
    </pattern>
    <!-- Card Shadow -->
    <filter id="shadow" x="-8%" y="-8%" width="116%" height="116%">
      <feDropShadow dx="0" dy="4" stdDeviation="4" flood-color="#0f172a" flood-opacity="0.08" />
    </filter>
    <filter id="glow" x="-20%" y="-20%" width="140%" height="140%">
      <feGaussianBlur stdDeviation="8" result="blur" />
      <feComposite in="SourceGraphic" in2="blur" operator="over" />
    </filter>
    <!-- Connection Markers -->
    <marker id="arrow" viewBox="0 0 10 10" refX="8" refY="5" markerWidth="6" markerHeight="6" orient="auto-start-reverse">
      <path d="M 0 1.5 L 8 5 L 0 8.5 z" fill="#64748b" />
    </marker>
    <marker id="arrow-blue" viewBox="0 0 10 10" refX="8" refY="5" markerWidth="6" markerHeight="6" orient="auto-start-reverse">
      <path d="M 0 1.5 L 8 5 L 0 8.5 z" fill="#3b82f6" />
    </marker>
    <marker id="arrow-green" viewBox="0 0 10 10" refX="8" refY="5" markerWidth="6" markerHeight="6" orient="auto-start-reverse">
      <path d="M 0 1.5 L 8 5 L 0 8.5 z" fill="#10b981" />
    </marker>
  </defs>

  <style>
    .font-all { font-family: Inter, system-ui, -apple-system, sans-serif; }
    .title-main { font-size: 22px; font-weight: 800; fill: #0f172a; }
    .title-sub { font-size: 13px; fill: #64748b; }
    .vpc-box { fill: #fcfdfe; stroke: #475569; stroke-width: 2.5; stroke-dasharray: 6 6; rx: 16; }
    .vpc-label { font-size: 14px; font-weight: 700; fill: #475569; }
    .az-line { stroke: #cbd5e1; stroke-width: 1.5; stroke-dasharray: 4 4; }
    .az-label { font-size: 12px; font-weight: 600; fill: #94a3b8; }
    
    /* Subnet Styles */
    .subnet-public { fill: #fffbeb; stroke: #f59e0b; stroke-width: 1.5; rx: 12; }
    .subnet-private { fill: #eff6ff; stroke: #3b82f6; stroke-width: 1.5; rx: 12; }
    .subnet-isolated { fill: #ecfdf5; stroke: #10b981; stroke-width: 1.5; rx: 12; }
    .subnet-title { font-size: 11px; font-weight: 700; }
    .subnet-title.pub { fill: #b45309; }
    .subnet-title.priv { fill: #1d4ed8; }
    .subnet-title.iso { fill: #047857; }

    /* Card Styles */
    .card { fill: #ffffff; stroke: #e2e8f0; stroke-width: 1; rx: 8; }
    .card-title { font-size: 12px; font-weight: 700; fill: #1e293b; }
    .card-subtitle { font-size: 10px; fill: #64748b; font-family: monospace; }
    
    /* Connections */
    .flow-line { stroke: #64748b; stroke-width: 2; fill: none; stroke-linecap: round; }
    .flow-line-blue { stroke: #3b82f6; stroke-width: 2; fill: none; stroke-linecap: round; }
    .flow-line-green { stroke: #10b981; stroke-width: 2; fill: none; stroke-linecap: round; }
    .flow-line-dash { stroke: #94a3b8; stroke-width: 1.5; fill: none; stroke-dasharray: 4 4; }
    .port-badge { fill: #f1f5f9; stroke: #cbd5e1; stroke-width: 1; rx: 4; }
    .port-text { font-size: 10px; font-weight: 700; fill: #475569; text-anchor: middle; font-family: monospace; }
  </style>

  <!-- Background Canvas -->
  <rect width="100%" height="100%" fill="#f8fafc" />
  <rect width="100%" height="100%" fill="url(#grid)" />

  <g class="font-all">
    <!-- Header -->
    <text x="40" y="45" class="title-main">Secure 3-AZ 3-Tier Web Architecture with RDS Proxy</text>
    <text x="40" y="65" class="title-sub">AWS CDK Stack: ThreeTierStack (WAF + CloudFront + ALB + Fargate + RDS Proxy + Aurora v2 Multi-AZ)</text>

    <!-- Legend (Top Right) -->
    <g transform="translate(770, 20)">
      <rect x="0" y="0" width="310" height="40" fill="#ffffff" stroke="#e2e8f0" rx="6" filter="url(#shadow)" />
      
      <circle cx="20" cy="20" r="6" fill="#f59e0b" />
      <text x="32" y="24" font-size="11" font-weight="600" fill="#1e293b">Public</text>

      <circle cx="100" cy="20" r="6" fill="#3b82f6" />
      <text x="112" y="24" font-size="11" font-weight="600" fill="#1e293b">Private</text>

      <circle cx="180" cy="20" r="6" fill="#10b981" />
      <text x="192" y="24" font-size="11" font-weight="600" fill="#1e293b">Isolated (DB)</text>
    </g>

    <!-- ==================== OUTER SYSTEMS (EDGE) ==================== -->
    <!-- 1. Internet Client -->
    <g transform="translate(30, 250)" filter="url(#shadow)">
      <rect width="110" height="90" class="card" />
      <path d="M 55 25 C 48 25, 43 30, 43 36 C 37 37, 33 42, 33 48 C 33 54, 38 59, 44 59 L 76 59 C 81 59, 86 54, 86 48 C 86 43, 82 38, 77 37 C 76 30, 70 25, 63 25 C 60 25, 57 26, 55 28 Z" fill="#94a3b8" />
      <text x="55" y="75" text-anchor="middle" font-size="12" font-weight="700" fill="#334155">Internet User</text>
    </g>

    <!-- 2. Amazon Route 53 (DNS) -->
    <g transform="translate(30, 90)" filter="url(#shadow)">
      <rect width="110" height="90" class="card" style="stroke: #ef4444; stroke-width: 1.5;" />
      <circle cx="55" cy="40" r="16" fill="#ef4444" opacity="0.2" />
      <path d="M 45 40 L 65 40 M 55 30 L 55 50" stroke="#ef4444" stroke-width="2" stroke-linecap="round" fill="none" />
      <path d="M 48 33 L 62 47" stroke="#ef4444" stroke-width="1.5" stroke-linecap="round" fill="none" />
      <text x="55" y="75" text-anchor="middle" font-size="11" font-weight="700" fill="#991b1b">Route 53 (DNS)</text>
    </g>

    <!-- 3. Amazon CloudFront (CDN) -->
    <g transform="translate(180, 250)" filter="url(#shadow)">
      <rect width="125" height="90" class="card" style="stroke: #8b5cf6; stroke-width: 1.5;" />
      <circle cx="62" cy="40" r="16" fill="#8b5cf6" opacity="0.2" />
      <circle cx="62" cy="40" r="10" fill="none" stroke="#8b5cf6" stroke-width="1.5" />
      <path d="M 52 40 L 72 40 M 62 30 A 15 10 0 0 0 62 50" fill="none" stroke="#8b5cf6" stroke-width="1" />
      <text x="62" y="75" text-anchor="middle" font-size="11" font-weight="700" fill="#5b21b6">CloudFront CDN</text>
    </g>


    <!-- ==================== REGIONAL VPC ==================== -->
    <g transform="translate(340, 80)">
      <rect width="750" height="660" class="vpc-box" />
      <text x="20" y="28" class="vpc-label">VPC (10.0.0.0/16)</text>
      
      <!-- Internet Gateway on VPC Border -->
      <g transform="translate(-18, 172)" filter="url(#shadow)">
        <circle cx="18" cy="18" r="18" fill="#3b82f6" />
        <path d="M 10 18 L 26 18 M 18 10 L 18 26 M 13 13 L 23 23 M 13 23 L 23 13" stroke="#ffffff" stroke-width="2" stroke-linecap="round" />
        <text x="42" y="22" font-size="10" font-weight="700" fill="#1d4ed8">IGW</text>
      </g>

      <!-- AZ Columns Boundaries (Dashed Lines) -->
      <line x1="245" y1="45" x2="245" y2="640" class="az-line" />
      <line x1="495" y1="45" x2="495" y2="640" class="az-line" />

      <!-- AZ Labels -->
      <text x="132" y="40" text-anchor="middle" class="az-label">Availability Zone A</text>
      <text x="370" y="40" text-anchor="middle" class="az-label">Availability Zone B</text>
      <text x="622" y="40" text-anchor="middle" class="az-label">Availability Zone C</text>

      <!-- ==================== SUBNET LAYER 1: PUBLIC ==================== -->
      <!-- Subnet A - Public -->
      <g transform="translate(15, 60)">
        <rect width="220" height="130" class="subnet-public" />
        <text x="10" y="18" class="subnet-title pub">Public Subnet A</text>
        
        <!-- NAT Gateway -->
        <g transform="translate(15, 15)" filter="url(#shadow)">
          <rect width="190" height="85" class="card" />
          <circle cx="28" cy="43" r="14" fill="#f59e0b" opacity="0.2" />
          <path d="M 22 43 L 34 43 M 28 37 L 28 49 M 24 39 L 32 47" stroke="#f59e0b" stroke-width="2" stroke-linecap="round" fill="none" />
          <text x="52" y="38" class="card-title">NAT Gateway</text>
          <text x="52" y="56" class="card-subtitle">nat-gateway-a</text>
          <text x="52" y="72" font-size="9" fill="#94a3b8">Outbound Traffic</text>
        </g>
      </g>

      <!-- Subnet B - Public -->
      <g transform="translate(250, 60)">
        <rect width="230" height="130" class="subnet-public" />
        <text x="10" y="18" class="subnet-title pub">Public Subnet B</text>

        <!-- ALB + WAF WebACL Protected Group -->
        <g transform="translate(15, 30)" filter="url(#shadow)">
          <rect width="200" height="85" class="card" style="stroke: #ef4444; stroke-width: 1.5;" />
          <!-- WAF Shield Icon -->
          <circle cx="28" cy="42" r="14" fill="#ef4444" opacity="0.15" />
          <path d="M 28 32 C 28 32, 35 34, 35 39 C 35 45, 28 49, 28 49 C 28 49, 21 45, 21 39 C 21 34, 28 32, 28 32 Z" fill="#ef4444" />
          <text x="52" y="32" class="card-title" fill="#b91c1c">AWS WAF (WebACL)</text>
          <text x="52" y="46" font-size="9" font-weight="600" fill="#991b1b">CommonRuleSet (OWASP)</text>
          <line x1="52" y1="52" x2="190" y2="52" stroke="#fecaca" stroke-width="1" />
          
          <!-- ALB Info inside the same card -->
          <text x="52" y="66" class="card-title" font-size="11">App Load Balancer</text>
          <text x="52" y="78" class="card-subtitle" font-size="9">ApplicationLoadBalancer</text>
        </g>
      </g>

      <!-- Subnet C - Public -->
      <g transform="translate(495, 60)">
        <rect width="240" height="130" class="subnet-public" />
        <text x="10" y="18" class="subnet-title pub">Public Subnet C</text>
        <text x="120" y="75" text-anchor="middle" font-size="10" fill="#d97706" font-style="italic">Spare Capacity</text>
      </g>


      <!-- ==================== SUBNET LAYER 2: PRIVATE ==================== -->
      <!-- Subnet A - Private -->
      <g transform="translate(15, 215)">
        <rect width="220" height="160" class="subnet-private" />
        <text x="10" y="18" class="subnet-title priv">Private Subnet A</text>

        <!-- ECS Task A -->
        <g transform="translate(15, 35)" filter="url(#shadow)">
          <rect width="190" height="110" class="card" />
          <circle cx="28" cy="48" r="14" fill="#3b82f6" opacity="0.2" />
          <rect x="21" y="41" width="14" height="14" rx="2" fill="none" stroke="#3b82f6" stroke-width="2" />
          <circle cx="28" cy="48" r="3" fill="#3b82f6" />
          <text x="52" y="30" class="card-title">ECS Task (Fargate)</text>
          <text x="52" y="44" class="card-subtitle">Port: 8080 (App) / 8125,8126 (DD)</text>
          <text x="52" y="56" class="card-subtitle">App Image: app-image</text>
          <text x="52" y="68" class="card-subtitle" fill="#64748b">Sidecar: Datadog Agent</text>
          <text x="52" y="90" font-size="9" fill="#3b82f6" font-weight="600">Active (AZ-a)</text>
        </g>
      </g>

      <!-- Subnet B - Private -->
      <g transform="translate(250, 215)">
        <rect width="230" height="160" class="subnet-private" />
        <text x="10" y="18" class="subnet-title priv">Private Subnet B</text>

        <!-- ECS Task B -->
        <g transform="translate(15, 35)" filter="url(#shadow)">
          <rect width="200" height="110" class="card" />
          <circle cx="28" cy="48" r="14" fill="#3b82f6" opacity="0.2" />
          <rect x="21" y="41" width="14" height="14" rx="2" fill="none" stroke="#3b82f6" stroke-width="2" />
          <circle cx="28" cy="48" r="3" fill="#3b82f6" />
          <text x="52" y="30" class="card-title">ECS Task (Fargate)</text>
          <text x="52" y="44" class="card-subtitle">Port: 8080 (App) / 8125,8126 (DD)</text>
          <text x="52" y="56" class="card-subtitle">App Image: app-image</text>
          <text x="52" y="68" class="card-subtitle" fill="#64748b">Sidecar: Datadog Agent</text>
          <text x="52" y="90" font-size="9" fill="#3b82f6" font-weight="600">Active (AZ-b)</text>
        </g>
      </g>

      <!-- Subnet C - Private -->
      <g transform="translate(495, 215)">
        <rect width="240" height="160" class="subnet-private" />
        <text x="10" y="18" class="subnet-title priv">Private Subnet C</text>
        <text x="100" y="18" font-size="8.5" font-weight="700" fill="#2563eb">🔄 Auto Scaling (stg/prod)</text>

        <!-- ECS Task C -->
        <g transform="translate(20, 35)" filter="url(#shadow)">
          <rect width="200" height="110" class="card" />
          <circle cx="28" cy="48" r="14" fill="#3b82f6" opacity="0.2" />
          <rect x="21" y="41" width="14" height="14" rx="2" fill="none" stroke="#3b82f6" stroke-width="2" />
          <circle cx="28" cy="48" r="3" fill="#3b82f6" />
          <text x="52" y="30" class="card-title">ECS Task (Fargate)</text>
          <text x="52" y="44" class="card-subtitle">Port: 8080 (App) / 8125,8126 (DD)</text>
          <text x="52" y="56" class="card-subtitle">App Image: app-image</text>
          <text x="52" y="68" class="card-subtitle" fill="#64748b">Sidecar: Datadog Agent</text>
          <text x="52" y="90" font-size="9" fill="#3b82f6" font-weight="600">Active (AZ-c)</text>
        </g>
      </g>


      <!-- ==================== SUBNET LAYER 3: ISOLATED ==================== -->
      <!-- Subnet A - Isolated -->
      <g transform="translate(15, 385)">
        <rect width="220" height="240" class="subnet-isolated" />
        <text x="10" y="18" class="subnet-title iso">Isolated Subnet A</text>

        <!-- RDS Proxy A (prod/stg only) -->
        <g transform="translate(15, 30)" filter="url(#shadow)">
          <rect width="190" height="75" class="card" style="stroke: #3b82f6; stroke-width: 1.5; stroke-dasharray: 3 3;" />
          <circle cx="28" cy="38" r="14" fill="#3b82f6" opacity="0.15" />
          <path d="M 22 38 L 34 38 M 28 32 L 34 38 L 28 44" stroke="#3b82f6" stroke-width="2" stroke-linecap="round" fill="none" />
          <text x="52" y="32" class="card-title" fill="#1d4ed8">RDS Proxy</text>
          <text x="52" y="46" class="card-subtitle">prod/stg only</text>
          <text x="52" y="58" class="card-subtitle" fill="#64748b">dev bypasses to DB</text>
        </g>

        <!-- Aurora Writer -->
        <g transform="translate(15, 130)" filter="url(#shadow)">
          <rect width="190" height="95" class="card" style="stroke: #10b981; stroke-width: 1.5;" />
          <circle cx="28" cy="48" r="14" fill="#10b981" opacity="0.2" />
          <path d="M 20 40 C 20 37, 36 37, 36 40 L 36 56 C 36 59, 20 59, 20 56 Z M 20 45 C 20 48, 36 48, 36 45 M 20 50 C 20 53, 36 53, 36 50" stroke="#10b981" stroke-width="2" stroke-linecap="round" fill="none" />
          <text x="52" y="34" class="card-title" fill="#047857">Aurora DB (Writer)</text>
          <text x="52" y="48" class="card-subtitle" fill="#065f46">Serverless v2 Primary</text>
          <text x="52" y="60" class="card-subtitle">Port: 3306 (MySQL)</text>
          <text x="52" y="76" font-size="9" font-weight="600" fill="#059669">Primary Node (AZ-a)</text>
        </g>
      </g>

      <!-- Subnet B - Isolated -->
      <g transform="translate(250, 385)">
        <rect width="230" height="240" class="subnet-isolated" />
        <text x="10" y="18" class="subnet-title iso">Isolated Subnet B</text>

        <!-- RDS Proxy B (prod/stg only) -->
        <g transform="translate(15, 30)" filter="url(#shadow)">
          <rect width="200" height="75" class="card" style="stroke: #3b82f6; stroke-width: 1.5; stroke-dasharray: 3 3;" />
          <circle cx="28" cy="38" r="14" fill="#3b82f6" opacity="0.15" />
          <path d="M 22 38 L 34 38 M 28 32 L 34 38 L 28 44" stroke="#3b82f6" stroke-width="2" stroke-linecap="round" fill="none" />
          <text x="52" y="32" class="card-title" fill="#1d4ed8">RDS Proxy</text>
          <text x="52" y="46" class="card-subtitle">prod/stg only</text>
          <text x="52" y="58" class="card-subtitle" fill="#64748b">dev bypasses to DB</text>
        </g>

        <!-- Aurora Reader (prod/stg only) -->
        <g transform="translate(15, 130)" filter="url(#shadow)">
          <rect width="200" height="95" class="card" style="stroke: #10b981; stroke-width: 1.5; stroke-dasharray: 3 3;" />
          <circle cx="28" cy="48" r="14" fill="#10b981" opacity="0.2" />
          <path d="M 20 40 C 20 37, 36 37, 36 40 L 36 56 C 36 59, 20 59, 20 56 Z M 20 45 C 20 48, 36 48, 36 45 M 20 50 C 20 53, 36 53, 36 50" stroke="#10b981" stroke-width="2" stroke-linecap="round" fill="none" />
          <text x="52" y="34" class="card-title" fill="#047857">Aurora DB (Reader)</text>
          <text x="52" y="48" class="card-subtitle">Serverless v2 Replica</text>
          <text x="52" y="60" class="card-subtitle">Port: 3306 (MySQL)</text>
          <text x="52" y="76" font-size="9" font-weight="600" fill="#059669">Reader (prod/stg only)</text>
        </g>
      </g>

      <!-- Subnet C - Isolated -->
      <g transform="translate(495, 385)">
        <rect width="240" height="240" class="subnet-isolated" />
        <text x="10" y="18" class="subnet-title iso">Isolated Subnet C</text>
        <text x="100" y="18" font-size="8.5" font-weight="700" fill="#059669">🛡️ Prod DB Protection</text>

        <!-- RDS Proxy C (prod/stg only) -->
        <g transform="translate(20, 30)" filter="url(#shadow)">
          <rect width="200" height="75" class="card" style="stroke: #3b82f6; stroke-width: 1.5; stroke-dasharray: 3 3;" />
          <circle cx="28" cy="38" r="14" fill="#3b82f6" opacity="0.15" />
          <path d="M 22 38 L 34 38 M 28 32 L 34 38 L 28 44" stroke="#3b82f6" stroke-width="2" stroke-linecap="round" fill="none" />
          <text x="52" y="32" class="card-title" fill="#1d4ed8">RDS Proxy</text>
          <text x="52" y="46" class="card-subtitle">prod/stg only</text>
          <text x="52" y="58" class="card-subtitle" fill="#64748b">dev bypasses to DB</text>
        </g>

        <!-- Aurora Reader (prod/stg only) -->
        <g transform="translate(20, 130)" filter="url(#shadow)">
          <rect width="200" height="95" class="card" style="stroke: #10b981; stroke-width: 1.5; stroke-dasharray: 3 3;" />
          <circle cx="28" cy="48" r="14" fill="#10b981" opacity="0.2" />
          <path d="M 20 40 C 20 37, 36 37, 36 40 L 36 56 C 36 59, 20 59, 20 56 Z M 20 45 C 20 48, 36 48, 36 45 M 20 50 C 20 53, 36 53, 36 50" stroke="#10b981" stroke-width="2" stroke-linecap="round" fill="none" />
          <text x="52" y="34" class="card-title">Aurora DB (Reader)</text>
          <text x="52" y="48" class="card-subtitle">Serverless v2 Replica</text>
          <text x="52" y="60" class="card-subtitle">Port: 3306 (MySQL)</text>
          <text x="52" y="76" font-size="9" font-weight="600" fill="#059669">Reader (prod/stg only)</text>
        </g>
      </g>
    </g>

    <!-- ==================== FLOW CONNECTIONS (ARROWS) ==================== -->
    <!-- 1. Route 53 DNS Interaction -->
    <path d="M 85 250 L 85 186" class="flow-line-dash" marker-end="url(#arrow)" />
    <path d="M 100 186 L 100 250" class="flow-line-dash" marker-end="url(#arrow)" />
    <text x="108" y="210" font-size="9" fill="#991b1b" font-weight="700">1. DNS Query</text>
    <text x="108" y="222" font-size="8" fill="#94a3b8">2. Returns CNAME</text>

    <!-- 2. Internet User to CloudFront -->
    <path d="M 140 295 L 172 295" class="flow-line-blue" marker-end="url(#arrow-blue)" />
    <g transform="translate(136, 303)">
      <text x="10" y="10" font-size="9" font-weight="700" fill="#1d4ed8">3. User Request</text>
      <text x="10" y="20" font-size="8" fill="#64748b">HTTPS :443</text>
    </g>

    <!-- 3. CloudFront to ALB (via IGW) -->
    <path d="M 305 295 L 322 295 L 322 252" class="flow-line-blue" />
    <path d="M 322 252 L 335 252 L 350 268 L 590 268 Q 605 268 605 251 L 605 155" class="flow-line-blue" marker-end="url(#arrow-blue)" />
    
    <!-- Port 80/443 Badge on CF -> ALB line -->
    <g transform="translate(420, 259)">
      <rect width="65" height="18" class="port-badge" />
      <text x="32.5" y="12" class="port-text">HTTP :80</text>
    </g>
    <text x="420" y="251" font-size="9" font-weight="700" fill="#1d4ed8">4. Forward Request</text>

    <!-- 4. ALB to ECS Tasks -->
    <path d="M 705 225 L 705 285" class="flow-line-blue" />
    <path d="M 705 285 L 465 285 L 465 322" class="flow-line-blue" marker-end="url(#arrow-blue)" />
    <path d="M 705 285 L 705 322" class="flow-line-blue" marker-end="url(#arrow-blue)" />
    <path d="M 705 285 L 955 285 L 955 322" class="flow-line-blue" marker-end="url(#arrow-blue)" />

    <!-- Port 8080 Badge on ALB -> ECS lines -->
    <g transform="translate(775, 275)">
      <rect width="65" height="18" class="port-badge" />
      <text x="32.5" y="12" class="port-text">HTTP :8080</text>
    </g>
    <text x="775" y="268" font-size="9" font-weight="700" fill="#1d4ed8">5. Route Traffic</text>

    <!-- 5. ECS Tasks to RDS Proxy (prod/stg) -->
    <path d="M 465 440 L 465 492" class="flow-line-blue" marker-end="url(#arrow-blue)" />
    <path d="M 705 440 L 705 492" class="flow-line-blue" marker-end="url(#arrow-blue)" />
    <path d="M 955 440 L 955 492" class="flow-line-blue" marker-end="url(#arrow-blue)" />

    <!-- ECS Tasks to DB Directly (dev bypass) -->
    <!-- Points left of task to left of database (y=440 to 592) -->
    <path d="M 450 440 L 450 592" class="flow-line-dash" marker-end="url(#arrow)" />
    <text x="382" y="520" font-size="8" fill="#64748b" font-weight="600">dev bypass</text>

    <!-- 6. RDS Proxy to Aurora DB -->
    <!-- Proxy A/B/C bottom: y=570. DB A/B/C top: y=595 -->
    <path d="M 465 570 L 465 592" class="flow-line-green" marker-end="url(#arrow-green)" />
    <path d="M 705 570 L 705 592" class="flow-line-green" marker-end="url(#arrow-green)" />
    <path d="M 955 570 L 955 592" class="flow-line-green" marker-end="url(#arrow-green)" />

    <!-- Replication link between Writer and Readers (prod/stg only) -->
    <path d="M 560 642 L 610 642" class="flow-line-dash" marker-end="url(#arrow)" />
    <path d="M 830 642 L 880 642" class="flow-line-dash" marker-end="url(#arrow)" />
    <text x="585" y="635" text-anchor="middle" font-size="8" fill="#64748b" font-weight="600">Replicate (prod/stg)</text>
    <text x="855" y="635" text-anchor="middle" font-size="8" fill="#64748b" font-weight="600">Replicate (prod/stg)</text>

    <!-- Port 3306 Badge on ECS -> RDS Proxy line -->
    <g transform="translate(475, 455)">
      <rect width="65" height="18" class="port-badge" />
      <text x="32.5" y="12" class="port-text">MySQL :3306</text>
    </g>
    <text x="475" y="450" font-size="9" font-weight="700" fill="#047857">6. DB Queries</text>

    <!-- 7. ECS Tasks Egress connection to NAT Gateway (for pulling images, APIs, etc.) -->
    <!-- Task A top: x=465, y=330 -->
    <!-- NAT GW center bottom: x=340+15+15+190/2 = 465, y=80+60+15+85 = 240 -->
    <path d="M 465 330 L 465 240" class="flow-line-dash" />
    <path d="M 705 330 L 705 305 L 465 305 L 465 240" class="flow-line-dash" />
    <!-- NAT GW to IGW for Internet access -->
    <path d="M 465 155 L 465 145 Q 465 135 410 135 L 322 135 L 322 250" class="flow-line-dash" marker-end="url(#arrow)" />
    <text x="350" y="118" font-size="8" font-weight="600" fill="#64748b">Egress to Internet</text>
  </g>
</svg>
